<?xml version="1.0" encoding="UTF-8"?>
<svg id="a" data-name="图层 1" xmlns="http://www.w3.org/2000/svg" viewBox="0 0 1885.75 2024">
  <defs>
    <style>
      .b {
        fill: #b5c8b3;
      }

      .c {
        fill: #7d9a88;
      }

      .d {
        fill: #e7dfc8;
      }
    </style>
  </defs>
  <path class="d" d="M1324.15,109.14c2.04,12.45-21.16,16.63-30.63,22.73-38.1,22.79-66.45,60.74-85.9,101.45-41.14,122.66-23.39,236.86-174.89,274.26-204.63,25.68-353.25,154.42-354.79,367.07-.86,8.15-8.4,8.02-16.18,7.62-60.38-3.42-107.38-4.65-175.7-10.39-292.45,31.57-440.3-310.59-171.75-458.39,26.16-171.01,194.22-332.58,366.53-309.67-35.17,61.48-30.36,140.98-4.62,204.09-121.19,85.24-72.88,343.61-278.6,272.86-4.07-.72-15.29-3.28-21.91.91-92.53,100.87,224.33,133.8,257.64-52.96,33.38-162.14,166.83-270.67,324.89-173.87,32.99,9.03,55.94-38,30.63-59.75-67.55-46.46-155.43-57.09-231.78-32.12-8.21,1.74-22.54,6.26-25.16-4.83-46.74-316.29,425.78-311.43,592.23-149.02Z"/>
  <path class="d" d="M1508.66,706.35c1.13-.9,2.75-.81,3.77.2,15.93,15.93,30.61,30.98,52.95,41.83,38.13,25.45,162.31,42.21,134.55-34.58-19.64-30.1-83.24,10.93-130.65-48.98-18.41-21.87,7.98-58.88,5.06-85.83-.11-68.89-35.19-136.43-100.99-169.32-18.26-10.37-45.54-6.92-55.73,10.79-1.96,20.68-2.49,35.32,17.06,46.84,134.41,67.55,53.27,228.56-80.08,219.7-36.15.47-67.52,6.3-101.92,16.45-92.61,29-165.94,101.42-176.64,199.55-2.34,11.56-15.78,4.78-23.73,4.71-76.14-5.2-163.87-9.22-257.59-16.15-10.53-.44-30.69-3.07-46.13-3.28-2.01-.02-3.64-1.62-3.69-3.63-.25-61.34,18.91-128.64,54.64-178.13,185.82-233.71,400.37-.76,467.74-433.36,139.23-279.89,514.43-16.83,497.59,227.29.78,4.42,3.43,8.28,7.28,10.56,156.02,89.48,151.31,339.07-14.08,416.03-80.82,36.21-124.75,26.59-221.54,16.1-225.17-22.71-209.19-9.63-391.14-30.57,32.2-203.55,245.28-111.83,363.26-206.22Z"/>
  <path class="b" d="M1691.91,1048.42c28.09,164.3,3.78,343.15-189.12,369.13-437.28,14.29-884.39,39.03-1317.12,50.19-100.72-20.69-179.07-107.77-179.09-212.9-12.8-140.22-25.29-338.82,152.69-383.29,25.86-7.36,96.36,61.01,130.76,67.6,175.14,38.24,1201.52,90.87,1401.89,109.27Z"/>
  <path class="c" d="M1385.32,1517.61c126.86-1.35,217.66-1.54,316.21-92.71,96.98,6.54,174.5,104.64,173.77,202.67-6.52,199.51,32.95,244.43-80.24,350.24-35.16,27.87-79.95,46.41-134.26,45.78-229.09-2-1221.22,4.66-1317.96-5.02-70.47-32.74-134.03-81.43-154.37-157.44-8.39-45.26-17.98-306.11,21.85-299.6,0,0,1174.99-43.94,1174.99-43.94Z"/>
</svg>