<?xml version="1.0" encoding="UTF-8"?>
<svg id="a" data-name="图层 1" xmlns="http://www.w3.org/2000/svg" viewBox="0 0 2048 2048">
  <defs>
    <style>
      .b {
        fill: #b5c8b3;
      }

      .c {
        fill: #7d9a88;
      }

      .d {
        fill: #e7dfc8;
      }

      .e {
        fill: #f9f5ea;
      }
    </style>
  </defs>
  <rect class="e" width="2048" height="2048" rx="256" ry="256"/>
  <path class="d" d="M1296.33,378.25c1.46,8.9-15.12,11.88-21.89,16.25-27.23,16.29-47.49,43.41-61.38,72.5-29.4,87.65-16.71,169.27-124.98,196-146.23,18.35-252.44,110.35-253.54,262.32-.61,5.82-6,5.73-11.57,5.45-43.15-2.44-76.74-3.32-125.56-7.42-208.99,22.56-314.65-221.95-122.74-327.57,18.69-122.21,138.8-237.67,261.93-221.3-25.14,43.93-21.69,100.75-3.3,145.85-86.61,60.91-52.09,245.55-199.09,194.99-2.91-.52-10.92-2.35-15.66.65-66.12,72.09,160.31,95.62,184.11-37.84,23.86-115.87,119.22-193.43,232.17-124.25,23.57,6.45,39.98-27.16,21.89-42.7-48.28-33.2-111.07-40.8-165.64-22.95-5.87,1.24-16.11,4.47-17.98-3.45-33.4-226.03,304.27-222.56,423.22-106.5Z"/>
  <path class="d" d="M1428.18,805.02c.81-.64,1.97-.58,2.7.15,11.38,11.38,21.88,22.14,37.84,29.9,27.25,18.18,115.99,30.17,96.15-24.71-14.04-21.51-59.48,7.81-93.37-35-13.15-15.63,5.7-42.08,3.61-61.34-.08-49.23-25.15-97.49-72.17-121-13.05-7.41-32.54-4.95-39.83,7.71-1.4,14.78-1.78,25.24,12.19,33.47,96.06,48.28,38.07,163.33-57.22,157-25.84.34-48.25,4.5-72.83,11.75-66.18,20.72-118.59,72.48-126.23,142.6-1.67,8.26-11.27,3.41-16.96,3.36-54.41-3.71-117.1-6.59-184.08-11.54-7.53-.31-21.93-2.19-32.97-2.34-1.43-.01-2.6-1.16-2.63-2.59-.18-43.83,13.51-91.93,39.05-127.3,132.79-167.01,286.12-.54,334.26-309.69,99.5-200.02,367.62-12.02,355.59,162.43.56,3.16,2.45,5.91,5.2,7.55,111.5,63.95,108.13,242.31-10.06,297.3-57.75,25.88-89.15,19-158.32,11.5-160.91-16.23-149.49-6.88-279.52-21.84,23.01-145.46,175.29-79.91,259.59-147.37Z"/>
  <path class="b" d="M1559.14,1049.48c20.07,117.41,2.7,245.22-135.15,263.79-312.49,10.21-632.01,27.89-941.25,35.87-71.98-14.78-127.97-77.01-127.99-152.14-9.15-100.2-18.07-242.13,109.12-273.91,18.48-5.26,68.86,43.6,93.44,48.31,125.16,27.33,858.64,64.94,1001.82,78.08Z"/>
  <path class="c" d="M1340.04,1384.77c90.66-.96,155.55-1.1,225.97-66.25,69.31,4.68,124.7,74.78,124.18,144.84-4.66,142.58,23.54,174.68-57.34,250.29-25.13,19.92-57.13,33.16-95.94,32.72-163.71-1.43-872.72,3.33-941.84-3.58-50.36-23.4-95.78-58.19-110.32-112.51-6-32.34-12.85-218.75,15.61-214.1l839.68-31.4Z"/>
</svg>